<mxfile host="app.diagrams.net" agent="Mozilla/5.0 (Windows NT 10.0; Win64; x64) AppleWebKit/537.36 (KHTML, like Gecko) Chrome/126.0.0.0 Safari/537.36" version="24.7.4">
  <diagram id="2GeiLMZWirYK3ZMhbMWs" name="Page-1">
    <mxGraphModel dx="1323" dy="743" grid="0" gridSize="10" guides="1" tooltips="1" connect="1" arrows="1" fold="1" page="1" pageScale="1" pageWidth="850" pageHeight="1100" math="0" shadow="0">
      <root>
        <mxCell id="0" />
        <mxCell id="1" parent="0" />
        <mxCell id="t7jrVKCqfwNunid1-D5p-4" value="" style="edgeStyle=orthogonalEdgeStyle;rounded=0;orthogonalLoop=1;jettySize=auto;html=1;" parent="1" source="t7jrVKCqfwNunid1-D5p-1" target="t7jrVKCqfwNunid1-D5p-2" edge="1">
          <mxGeometry relative="1" as="geometry" />
        </mxCell>
        <mxCell id="t7jrVKCqfwNunid1-D5p-1" value="Start" style="strokeWidth=1;html=1;shape=mxgraph.flowchart.terminator;whiteSpace=wrap;" parent="1" vertex="1">
          <mxGeometry x="94" y="97" width="80" height="40" as="geometry" />
        </mxCell>
        <mxCell id="t7jrVKCqfwNunid1-D5p-5" value="" style="edgeStyle=orthogonalEdgeStyle;rounded=0;orthogonalLoop=1;jettySize=auto;html=1;" parent="1" source="t7jrVKCqfwNunid1-D5p-2" target="t7jrVKCqfwNunid1-D5p-3" edge="1">
          <mxGeometry relative="1" as="geometry" />
        </mxCell>
        <mxCell id="t7jrVKCqfwNunid1-D5p-2" value="Input Files" style="shape=parallelogram;html=1;strokeWidth=1;perimeter=parallelogramPerimeter;whiteSpace=wrap;rounded=1;arcSize=12;size=0.23;fontStyle=2" parent="1" vertex="1">
          <mxGeometry x="199" y="97" width="100" height="40" as="geometry" />
        </mxCell>
        <mxCell id="t7jrVKCqfwNunid1-D5p-7" value="" style="edgeStyle=orthogonalEdgeStyle;rounded=0;orthogonalLoop=1;jettySize=auto;html=1;" parent="1" source="t7jrVKCqfwNunid1-D5p-3" target="t7jrVKCqfwNunid1-D5p-6" edge="1">
          <mxGeometry relative="1" as="geometry" />
        </mxCell>
        <mxCell id="t7jrVKCqfwNunid1-D5p-3" value="Feature Extraction" style="rounded=0;whiteSpace=wrap;html=1;fontStyle=2" parent="1" vertex="1">
          <mxGeometry x="328" y="97" width="80" height="40" as="geometry" />
        </mxCell>
        <mxCell id="t7jrVKCqfwNunid1-D5p-9" value="" style="edgeStyle=orthogonalEdgeStyle;rounded=0;orthogonalLoop=1;jettySize=auto;html=1;" parent="1" source="t7jrVKCqfwNunid1-D5p-6" target="t7jrVKCqfwNunid1-D5p-8" edge="1">
          <mxGeometry relative="1" as="geometry" />
        </mxCell>
        <mxCell id="t7jrVKCqfwNunid1-D5p-6" value="&lt;i&gt;Dataframe Making&lt;/i&gt;" style="rounded=0;whiteSpace=wrap;html=1;" parent="1" vertex="1">
          <mxGeometry x="442" y="97" width="80" height="40" as="geometry" />
        </mxCell>
        <mxCell id="t7jrVKCqfwNunid1-D5p-11" value="" style="edgeStyle=orthogonalEdgeStyle;rounded=0;orthogonalLoop=1;jettySize=auto;html=1;" parent="1" source="t7jrVKCqfwNunid1-D5p-8" target="t7jrVKCqfwNunid1-D5p-10" edge="1">
          <mxGeometry relative="1" as="geometry" />
        </mxCell>
        <mxCell id="t7jrVKCqfwNunid1-D5p-8" value="&lt;i&gt;Data Cleaning&lt;/i&gt;" style="rounded=0;whiteSpace=wrap;html=1;" parent="1" vertex="1">
          <mxGeometry x="442" y="172" width="80" height="40" as="geometry" />
        </mxCell>
        <mxCell id="t7jrVKCqfwNunid1-D5p-13" value="" style="edgeStyle=orthogonalEdgeStyle;rounded=0;orthogonalLoop=1;jettySize=auto;html=1;" parent="1" source="t7jrVKCqfwNunid1-D5p-10" target="t7jrVKCqfwNunid1-D5p-12" edge="1">
          <mxGeometry relative="1" as="geometry" />
        </mxCell>
        <mxCell id="t7jrVKCqfwNunid1-D5p-10" value="&lt;i&gt;Down Sampling&lt;/i&gt;" style="rounded=0;whiteSpace=wrap;html=1;" parent="1" vertex="1">
          <mxGeometry x="331" y="172" width="80" height="40" as="geometry" />
        </mxCell>
        <mxCell id="t7jrVKCqfwNunid1-D5p-15" value="" style="edgeStyle=orthogonalEdgeStyle;rounded=0;orthogonalLoop=1;jettySize=auto;html=1;" parent="1" source="t7jrVKCqfwNunid1-D5p-12" target="t7jrVKCqfwNunid1-D5p-14" edge="1">
          <mxGeometry relative="1" as="geometry" />
        </mxCell>
        <mxCell id="t7jrVKCqfwNunid1-D5p-12" value="&lt;i&gt;Dataset Splitting&lt;/i&gt;" style="rounded=0;whiteSpace=wrap;html=1;" parent="1" vertex="1">
          <mxGeometry x="211" y="172" width="80" height="40" as="geometry" />
        </mxCell>
        <mxCell id="t7jrVKCqfwNunid1-D5p-14" value="End" style="strokeWidth=1;html=1;shape=mxgraph.flowchart.terminator;whiteSpace=wrap;" parent="1" vertex="1">
          <mxGeometry x="97" y="172" width="80" height="40" as="geometry" />
        </mxCell>
      </root>
    </mxGraphModel>
  </diagram>
</mxfile>
